<svg xmlns="http://www.w3.org/2000/svg" width="1024" height="423.665"><path fill="#575756" d="M100.79 310.035h5.273l9.433 19.815h.103l9.327-19.815h5.041v39.105h-3.78v-33.509h-.109l-9.27 19.91h-2.902l-9.315-19.86h-.187v33.459h-3.614zM137.257 339.708v-8.496c0-6.859 4.383-10.644 10.139-10.644 5.928 0 9.442 3.734 9.442 9.882v5.479h-15.674v3.829c0 4.722 2.448 6.81 7.012 6.81 3.126 0 5.269-1.149 6.788-2.024l1.437 2.581c-2.523 1.979-5.604 2.686-8.774 2.686-6.091-.002-10.37-3.019-10.37-10.103m15.914-6.585v-3.005c0-3.29-1.483-6.578-6.051-6.578-4.21 0-5.956 3.336-5.956 6.578v3.005h12.007zM163.632 321.229h3.613v4.822h.066c1.693-3.785 5.154-5.483 8.724-5.483 3.768 0 6.188 2.579 6.8 5.44h.053c1.802-3.742 5.141-5.44 8.724-5.44 4.151 0 6.953 3.009 6.953 7.076v21.496h-3.826v-20.396c0-3.786-1.868-5.098-4.841-5.098-3.229 0-6.788 3.117-6.856 7.185v18.309h-3.826v-20.672c-.051-3.51-1.937-4.821-4.83-4.821-3.339 0-6.909 3.341-6.909 7.51v17.983h-3.845v-27.911zM210.021 344.536h-.1l-.065 4.604h-3.404v-39.105h3.845v15.642h.174c1.527-3.522 5.032-5.165 7.837-5.165 5.257 0 7.784 3.854 7.784 8.239v12.118c0 5.755-3.888 8.94-8.446 8.94-2.901 0-6.582-1.919-7.625-5.273m12.226-3.504v-12.069c0-3.235-1.747-5.322-5.378-5.322-3.112 0-6.571 3.235-6.571 8.121v7.122c0 4.498 3.076 8.014 6.755 8.014 3.064-.001 5.194-1.981 5.194-5.866M232.127 339.708v-8.496c0-6.859 4.395-10.644 10.15-10.644 5.91 0 9.425 3.734 9.425 9.882v5.479h-15.687v3.829c0 4.722 2.483 6.81 7.03 6.81 3.108 0 5.25-1.149 6.787-2.024l1.44 2.581c-2.53 1.979-5.613 2.686-8.79 2.686-6.083-.002-10.355-3.019-10.355-10.103m15.894-6.585v-3.005c0-3.29-1.471-6.578-6.013-6.578-4.248 0-5.993 3.336-5.993 6.578v3.005h12.006zM258.485 321.229h3.646v4.822h.045c2.021-4.161 4.714-5.146 7.901-5.146.536 0 1.361.05 1.854.175v3.436c-1.048-.163-1.854-.163-2.314-.163-3.661 0-7.231 2.138-7.275 7.246v17.542h-3.858v-27.912zM286.022 339.757v-9.033c0-6.534 4.248-10.156 9.942-10.156 5.91 0 10.029 3.404 10.029 9.987v9.053c0 6.846-4.228 10.201-9.938 10.201-5.976 0-10.033-3.403-10.033-10.052m16.126-.099v-9.32c0-3.736-1.82-6.761-6.185-6.761-4.459 0-6.097 3.188-6.097 7.028v9.103c0 4.286 1.805 6.959 6.251 6.959 4.568 0 6.031-3.061 6.031-7.009M315.093 324.458h-4.274v-3.173h4.274v-4.778c0-4.61 2.68-7.123 6.859-7.123 1.094 0 2.179.112 3.235.387v3.126c-.702-.227-1.823-.275-2.746-.275-2.033 0-3.517 1.037-3.517 3.835v4.829h5.603v3.173h-5.603v24.682h-3.832v-24.683zM342.341 344.157v-19.741h-4.553v-3.074h4.553v-8.12h3.847v8.12h7.165v3.074h-7.165v18.534c0 2.243 1.146 3.242 3.614 3.242 1.081 0 2.354-.281 3.345-.612v3.187c-1.694.6-3.286.868-4.624.868-2.951-.001-6.182-1.038-6.182-5.478M359.062 310.035h3.845v15.792h.109c1.636-3.618 4.989-5.259 8.437-5.259 4.394 0 7.019 3.186 7.019 7.134v21.438h-3.827v-20.29c0-3.779-1.643-5.21-4.821-5.21-3.359 0-6.917 3.449-6.917 7.683v17.817h-3.845v-39.105zM385.333 339.708v-8.496c0-6.859 4.394-10.644 10.151-10.644 5.91 0 9.417 3.734 9.417 9.882v5.479h-15.68v3.829c0 4.722 2.465 6.81 7.018 6.81 3.12 0 5.264-1.149 6.794-2.024l1.44 2.581c-2.521 1.979-5.603 2.686-8.79 2.686-6.078-.002-10.35-3.019-10.35-10.103m15.896-6.585v-3.005c0-3.29-1.472-6.578-6.019-6.578-4.229 0-5.988 3.336-5.988 6.578v3.005h12.007zM419.101 344.706l2.679-2.805c2.971 2.697 5.331 4.335 10.155 4.335 4.654 0 7.46-2.893 7.46-6.747 0-4.328-3.003-6.191-6.079-7.664l-4.932-2.368c-4.614-2.137-7.35-5.43-7.35-9.87 0-5.717 4.329-10.264 11.13-10.264 4.325 0 8.228 1.38 10.798 4.498l-2.57 2.578c-2.527-2.354-4.78-3.627-8.498-3.627-3.851 0-6.697 2.098-6.697 6.371 0 3.187 1.869 4.997 5.592 6.747l4.553 2.198c5.111 2.462 8.175 5.711 8.175 10.758 0 6.459-4.989 10.957-12.026 10.957-5.25 0-9.428-1.811-12.39-5.097M450.468 310.035h4.126l16.997 30.935h.106v-30.935h3.618v39.105h-3.548l-17.558-32.303h-.127v32.303h-3.614zM482.773 338.283v-17.28c0-7.025 5.199-11.618 12.789-11.618 7.002 0 11.676 4.174 11.676 9.934v3.012h-3.667v-2.188c0-4.186-2.649-7.369-8.191-7.369-5.535 0-8.482 3.522-8.482 8.457v16.554c0 6.042 3.554 8.572 8.664 8.572 5.128 0 8.009-2.924 8.009-6.973v-2.579h3.667v2.904c0 6.146-4.674 10.096-11.676 10.096-7.366-.002-12.789-3.788-12.789-11.522M512.435 331.375h11.4v3.067h-11.4zM530.201 310.035h4.067v35.601h17.16v3.504h-21.227zM555.919 341.793c0-6.521 5.717-8.883 10.264-8.883h5.311v-4.761c0-3.304-2.198-4.784-5.473-4.784-2.961 0-5.771 1.431-5.771 4.448v1.593h-3.45v-1.705c0-4.718 4.324-7.134 9.657-7.134 4.931 0 8.928 2.247 8.928 7.408v14.094c0 2.135.237 5.697.274 7.07h-3.56l-.221-4.435h-.111c-1.816 3.997-5.646 5.047-8.177 5.047-4.054.001-7.671-2.623-7.671-7.958m15.574-1.911v-4.342h-4.729c-3.229 0-6.89 1.043-6.89 5.703 0 3.787 2.342 5.548 5.041 5.548 3.561.001 6.578-2.912 6.578-6.909M579.938 321.229h4.111l6.26 22.707h.044l6.527-22.707h3.604l-8.539 27.975h-3.729zM603.739 341.793c0-6.521 5.697-8.883 10.246-8.883h5.311v-4.761c0-3.304-2.175-4.784-5.46-4.784-2.975 0-5.761 1.431-5.761 4.448v1.593h-3.462v-1.705c0-4.718 4.331-7.134 9.646-7.134 4.929 0 8.939 2.247 8.939 7.408v14.094c0 2.135.219 5.697.264 7.07h-3.55l-.218-4.435h-.125c-1.806 3.997-5.635 5.047-8.159 5.047-4.059.001-7.671-2.623-7.671-7.958m15.557-1.911v-4.342h-4.698c-3.248 0-6.922 1.043-6.922 5.703 0 3.787 2.374 5.548 5.053 5.548 3.549.001 6.567-2.912 6.567-6.909M630.938 343.663v-33.628h3.849v32.958c0 1.818.813 3.13 3.224 3.13.725 0 1.693-.105 2.36-.205v3.011c-1.273.438-2.486.536-3.629.536-3.674-.001-5.804-2.016-5.804-5.802M646.02 310.583h3.836v5.873h-3.836v-5.873zm0 10.646h3.836v27.911h-3.836v-27.911zM657.951 321.229h3.635v4.711h.051c1.812-3.725 5.147-5.372 8.728-5.372 4.222 0 7.015 3.186 7.015 7.134v21.438h-3.848v-20.396c0-3.729-1.812-5.098-4.823-5.098-3.336 0-6.89 3.341-6.89 7.51v17.983h-3.867v-27.91zM694.271 338.283v-17.054c0-7.078 5.298-11.906 12.769-11.906 7.146 0 11.971 4.173 11.971 9.926v2.804h-3.738V319.8c0-4.055-3.133-7.079-8.28-7.079-5.587 0-8.658 3.787-8.658 8.671v16.63c0 5.26 3.228 8.334 8.774 8.334 6.078 0 8.203-3.362 8.203-7.404v-6.802h-8.157v-3.235h12.024v10.519c0 6.086-4.741 10.371-12.139 10.371-7.283-.002-12.769-3.788-12.769-11.522M726.767 321.229h3.65v4.822h.049c2.019-4.161 4.699-5.146 7.885-5.146.548 0 1.381.05 1.868.175v3.436c-1.043-.163-1.868-.163-2.295-.163-3.686 0-7.233 2.138-7.309 7.246v17.542h-3.849v-27.912zM744.434 339.757v-9.033c0-6.534 4.222-10.156 9.933-10.156 5.918 0 10.033 3.404 10.033 9.987v9.053c0 6.846-4.222 10.201-9.92 10.201-5.974 0-10.046-3.403-10.046-10.052m16.136-.099v-9.32c0-3.736-1.816-6.761-6.204-6.761-4.452 0-6.097 3.188-6.097 7.028v9.103c0 4.286 1.829 6.959 6.253 6.959 4.549 0 6.048-3.061 6.048-7.009M771.289 342.669v-21.44h3.854v20.289c0 3.736 1.652 5.148 4.774 5.148 3.617 0 6.972-3.386 6.972-7.607v-17.83h3.842v27.911h-3.461l-.17-4.772h-.104c-1.437 3.399-4.885 5.436-8.502 5.436-4.231-.001-7.205-2.907-7.205-7.135M798.726 321.229h3.616v4.598h.102c1.706-3.711 5.167-5.309 8.008-5.309 5.167 0 7.91 3.672 7.91 8.058v12.069c0 5.71-3.344 9.158-8.453 9.158-2.811 0-6.14-1.7-7.228-4.942h-.124v14.051h-3.831v-37.683zm15.804 19.853v-11.956c0-3.012-1.548-5.485-5.389-5.485-3.68 0-6.585 3.411-6.585 8.283v6.747c0 4.711 2.974 8.221 6.92 8.221 2.912-.001 5.054-1.861 5.054-5.81"/><path fill="#2C4255" d="M156.379 89.063L100.79 235.259h30.966l42.286-115.991 43.114 115.991h32.968L193.186 89.063zM279.447 112.181h-40.44l-8.848-23.126h121.692v23.126h-42.793v123.078h-29.611zM399.492 167.104v68.155h-29.641V89.06h29.641v62.705l53.94-62.705h35.626l-60.633 68.491 63.126 77.708H454.09zM508.199 89.063h29.623v146.201h-29.623zM666.022 195.989V89.063h27.163V235.27H657.52l-58.76-107.1v107.1h-27.161V89.063h35.988zM808.033 117.31c-9.324-4.81-19.478-7.94-32.127-7.94-10.309 0-24.995 4.619-24.995 18.647 0 14.014 17.192 17.804 33.336 24.256 19.451 7.747 34.114 17.81 34.114 41.574 0 30.542-24.963 46.208-57.261 46.208-16.497 0-30.953-3.799-41.805-9.244l3.662-26.57c9.994 6.43 23.819 11.235 37.645 11.235 15.304 0 26.599-5.963 26.599-19.147 0-13.221-15.948-17.988-31.941-24.417-16.997-6.775-35.139-15.366-35.139-40.767 0-30.36 27.329-45.369 54.125-45.369 15.46 0 26.966 3.13 36.962 7.902l-3.175 23.632z"/></svg>