<svg xmlns="http://www.w3.org/2000/svg" id="Layer_1" viewBox="0 0 538.7 73"><style>.st0{fill:#575756}.st1{fill:#2f4659}.st2{fill:#2c4255}.st3{fill:#c8d400}.st4{fill:#0091d3}.st5{fill:none}.st6{fill:#020203}.st7{fill:#00547c}</style><path d="M172 53.3h1.1l2 4.3h.1l2-4.3h1.1v8.5h-.9v-7.3l-2 4.3h-.6l-2-4.3h-.1v7.3h-.7zM179.8 59.7v-1.8c0-1.5.9-2.3 2.2-2.3 1.3 0 2 .8 2 2.1v1.2h-3.4v.8c0 1 .5 1.5 1.5 1.5.7 0 1.1-.2 1.5-.4l.3.6c-.5.4-1.2.6-1.9.6-1.2-.1-2.2-.8-2.2-2.3m3.5-1.4v-.6c0-.7-.3-1.4-1.3-1.4-.9 0-1.3.7-1.3 1.4v.6h2.6zM185.5 55.7h.8v1c.4-.8 1.1-1.2 1.9-1.2.8 0 1.3.6 1.5 1.2.4-.8 1.1-1.2 1.9-1.2.9 0 1.5.7 1.5 1.5v4.6h-.8v-4.4c0-.8-.4-1.1-1-1.1-.7 0-1.5.7-1.5 1.6v4h-.8v-4.5c0-.8-.4-1-1-1-.7 0-1.5.7-1.5 1.6v3.9h-.8v-6zM195.5 60.8v1h-.7v-8.4h.8v3.4c.3-.8 1.1-1.1 1.7-1.1 1.1 0 1.7.8 1.7 1.8V60c0 1.2-.8 1.9-1.8 1.9-.6 0-1.4-.4-1.7-1.1m2.7-.8v-2.6c0-.7-.4-1.1-1.2-1.1-.7 0-1.4.7-1.4 1.8v1.5c0 1 .7 1.7 1.5 1.7.6 0 1.1-.5 1.1-1.3M200.3 59.7v-1.8c0-1.5.9-2.3 2.2-2.3 1.3 0 2 .8 2 2.1v1.2h-3.4v.8c0 1 .5 1.5 1.5 1.5.7 0 1.1-.2 1.5-.4l.3.6c-.5.4-1.2.6-1.9.6-1.3-.1-2.2-.8-2.2-2.3m3.5-1.4v-.6c0-.7-.3-1.4-1.3-1.4-.9 0-1.3.7-1.3 1.4v.6h2.6zM206 55.7h.8v1c.4-.9 1-1.1 1.7-1.1h.4v.7h-.5c-.8 0-1.6.5-1.6 1.6v3.8h-.8v-6zM212 59.7v-2c0-1.4.9-2.2 2.1-2.2 1.3 0 2.2.7 2.2 2.2v2c0 1.5-.9 2.2-2.1 2.2-1.4 0-2.2-.7-2.2-2.2m3.4 0v-2c0-.8-.4-1.5-1.3-1.5-1 0-1.3.7-1.3 1.5v2c0 .9.4 1.5 1.3 1.5 1 0 1.3-.6 1.3-1.5M218.2 56.4h-.9v-.7h.9v-1c0-1 .6-1.5 1.5-1.5.2 0 .5 0 .7.1v.7c-.2 0-.4-.1-.6-.1-.4 0-.8.2-.8.8v1h1.2v.7H219v5.3h-.8v-5.3zM224.1 60.7v-4.3h-1v-.7h1V54h.8v1.8h1.5v.7H225v4c0 .5.2.7.8.7.2 0 .5-.1.7-.1v.7c-.4.1-.7.2-1 .2-.7-.1-1.4-.4-1.4-1.3M227.7 53.3h.8v3.4c.4-.8 1.1-1.1 1.8-1.1.9 0 1.5.7 1.5 1.5v4.6h-.8v-4.4c0-.8-.4-1.1-1-1.1-.7 0-1.5.7-1.5 1.7v3.9h-.8v-8.5zM233.4 59.7v-1.8c0-1.5.9-2.3 2.2-2.3 1.3 0 2 .8 2 2.1v1.2h-3.4v.8c0 1 .5 1.5 1.5 1.5.7 0 1.1-.2 1.5-.4l.3.6c-.5.4-1.2.6-1.9.6-1.3-.1-2.2-.8-2.2-2.3m3.4-1.4v-.6c0-.7-.3-1.4-1.3-1.4-.9 0-1.3.7-1.3 1.4v.6h2.6zM240.7 60.8l.6-.6c.6.6 1.2.9 2.2.9 1 0 1.6-.6 1.6-1.5s-.6-1.3-1.3-1.7l-1.1-.5c-1-.5-1.6-1.2-1.6-2.1 0-1.2.9-2.2 2.4-2.2.9 0 1.8.3 2.3 1l-.6.6c-.5-.5-1-.8-1.8-.8s-1.4.5-1.4 1.4c0 .7.4 1.1 1.2 1.5l1 .5c1.1.5 1.8 1.2 1.8 2.3 0 1.4-1.1 2.4-2.6 2.4-1.1-.1-2.1-.5-2.7-1.2M247.5 53.3h.9L252 60h.1v-6.7h.7v8.5h-.7l-3.8-7v7h-.8zM254.5 59.4v-3.7c0-1.5 1.1-2.5 2.8-2.5 1.5 0 2.5.9 2.5 2.1v.7h-.8v-.5c0-.9-.6-1.6-1.8-1.6-1.2 0-1.8.8-1.8 1.8v3.6c0 1.3.8 1.8 1.9 1.8 1.1 0 1.7-.6 1.7-1.5V59h.8v.6c0 1.3-1 2.2-2.5 2.2-1.7.1-2.8-.7-2.8-2.4M260.9 57.9h2.5v.7h-2.5zM264.7 53.3h.9V61h3.7v.8h-4.6zM270.3 60.2c0-1.4 1.2-1.9 2.2-1.9h1.1v-1c0-.7-.5-1-1.2-1-.6 0-1.2.3-1.2 1v.3h-.7v-.4c0-1 .9-1.5 2.1-1.5 1.1 0 1.9.5 1.9 1.6v3c0 .5 0 1.2.1 1.5h-.8v-1c-.4.9-1.2 1.1-1.8 1.1-1 0-1.7-.6-1.7-1.7m3.3-.4v-.9h-1c-.7 0-1.5.2-1.5 1.2 0 .8.5 1.2 1.1 1.2.8-.1 1.4-.7 1.4-1.5M275.4 55.7h.9l1.4 4.9 1.4-4.9h.8l-1.9 6.1h-.8zM280.6 60.2c0-1.4 1.2-1.9 2.2-1.9h1.1v-1c0-.7-.5-1-1.2-1-.6 0-1.2.3-1.2 1v.3h-.7v-.4c0-1 .9-1.5 2.1-1.5 1.1 0 1.9.5 1.9 1.6v3c0 .5 0 1.2.1 1.5h-.8v-1c-.4.9-1.2 1.1-1.8 1.1-.9 0-1.7-.6-1.7-1.7m3.4-.4v-.9h-1c-.7 0-1.5.2-1.5 1.2 0 .8.5 1.2 1.1 1.2.7-.1 1.4-.7 1.4-1.5M286.5 60.6v-7.3h.8v7.1c0 .4.2.7.7.7h.5v.7c-.3.1-.5.1-.8.1-.8-.1-1.2-.5-1.2-1.3M289.7 53.4h.8v1.3h-.8v-1.3zm0 2.3h.8v6h-.8v-6zM292.3 55.7h.8v1c.4-.8 1.1-1.2 1.9-1.2.9 0 1.5.7 1.5 1.5v4.6h-.8v-4.4c0-.8-.4-1.1-1-1.1-.7 0-1.5.7-1.5 1.6v3.9h-.8v-5.9zM300.1 59.4v-3.7c0-1.5 1.1-2.6 2.8-2.6 1.5 0 2.6.9 2.6 2.1v.6h-.8v-.5c0-.9-.7-1.5-1.8-1.5-1.2 0-1.9.8-1.9 1.9v3.6c0 1.1.7 1.8 1.9 1.8 1.3 0 1.8-.7 1.8-1.6V58h-1.8v-.7h2.6v2.3c0 1.3-1 2.2-2.6 2.2-1.6.1-2.8-.7-2.8-2.4M307.2 55.7h.8v1c.4-.9 1-1.1 1.7-1.1h.4v.7h-.5c-.8 0-1.6.5-1.6 1.6v3.8h-.8v-6zM311 59.7v-2c0-1.4.9-2.2 2.1-2.2 1.3 0 2.2.7 2.2 2.2v2c0 1.5-.9 2.2-2.1 2.2-1.3 0-2.2-.7-2.2-2.2m3.5 0v-2c0-.8-.4-1.5-1.3-1.5-1 0-1.3.7-1.3 1.5v2c0 .9.4 1.5 1.3 1.5s1.3-.6 1.3-1.5M316.8 60.4v-4.6h.8v4.4c0 .8.4 1.1 1 1.1.8 0 1.5-.7 1.5-1.6v-3.9h.8v6h-.7v-1c-.3.7-1.1 1.2-1.8 1.2-1-.1-1.6-.7-1.6-1.6M322.7 55.7h.8v1c.4-.8 1.1-1.1 1.7-1.1 1.1 0 1.7.8 1.7 1.7v2.6c0 1.2-.7 2-1.8 2-.6 0-1.3-.4-1.6-1.1v3h-.8v-8.1zm3.4 4.3v-2.6c0-.7-.3-1.2-1.2-1.2-.8 0-1.4.7-1.4 1.8v1.5c0 1 .6 1.8 1.5 1.8.7 0 1.1-.4 1.1-1.3" class="st0"/><path d="M184 10.6l-12 31.6h6.6l9.2-25.1 9.3 25.1h7.1l-12.3-31.6zM210.5 15.6h-8.7l-1.9-5h26.3v5h-9.3v26.6h-6.4zM236.5 27.4v14.8h-6.4V10.6h6.4v13.5l11.6-13.5h7.7l-13.1 14.8 13.7 16.8h-8.1zM260 10.6h6.4v31.6H260zM294 33.7V10.6h5.9v31.6h-7.7L279.5 19v23.2h-5.9V10.6h7.8zM324.7 16.7c-2-1-4.2-1.7-6.9-1.7-2.2 0-5.4 1-5.4 4s3.7 3.8 7.2 5.2c4.2 1.7 7.4 3.8 7.4 9 0 6.6-5.4 10-12.4 10-3.6 0-6.7-.8-9-2l.8-5.7c2.2 1.4 5.1 2.4 8.1 2.4 3.3 0 5.7-1.3 5.7-4.1 0-2.9-3.4-3.9-6.9-5.3-3.7-1.5-7.6-3.3-7.6-8.8 0-6.6 5.9-9.8 11.7-9.8 3.3 0 5.8.7 8 1.7l-.7 5.1z" class="st1"/><path d="M368.2 53.4h1.2l2 4.3 2.1-4.3h1.1v8.5h-.9v-7.3l-2 4.4h-.6l-2-4.3h-.1v7.2h-.8zM376.1 59.9V58c0-1.5.9-2.3 2.2-2.3 1.3 0 2 .8 2 2.1V59H377v.8c0 1 .5 1.5 1.5 1.5.7 0 1.1-.2 1.5-.4l.3.6c-.5.4-1.2.6-1.9.6-1.3-.1-2.3-.7-2.3-2.2m3.5-1.5v-.6c0-.7-.3-1.4-1.3-1.4-.9 0-1.3.7-1.3 1.4v.6h2.6zM381.8 55.9h.8v1c.4-.8 1.1-1.2 1.9-1.2.8 0 1.3.6 1.5 1.2.4-.8 1.1-1.2 1.9-1.2.9 0 1.5.7 1.5 1.5v4.6h-.8v-4.4c0-.8-.4-1.1-1-1.1-.7 0-1.5.7-1.5 1.6v4h-.8v-4.5c0-.8-.4-1-1-1-.7 0-1.5.7-1.5 1.6v3.9h-.8v-6zM391.9 60.9v1h-.7v-8.5h.8v3.4c.3-.8 1.1-1.1 1.7-1.1 1.1 0 1.7.8 1.7 1.8v2.6c0 1.2-.8 1.9-1.8 1.9-.7 0-1.5-.4-1.7-1.1m2.6-.8v-2.6c0-.7-.4-1.1-1.2-1.1-.7 0-1.4.7-1.4 1.8v1.5c0 1 .7 1.7 1.5 1.7.6 0 1.1-.4 1.1-1.3M396.6 59.9V58c0-1.5 1-2.3 2.2-2.3 1.3 0 2 .8 2 2.1V59h-3.4v.8c0 1 .5 1.5 1.5 1.5.7 0 1.1-.2 1.5-.4l.3.6c-.5.4-1.2.6-1.9.6-1.2-.1-2.2-.7-2.2-2.2m3.5-1.5v-.6c0-.7-.3-1.4-1.3-1.4-.9 0-1.3.7-1.3 1.4v.6h2.6zM402.3 55.9h.8v1c.4-.9 1-1.1 1.7-1.1h.4v.7h-.5c-.8 0-1.6.5-1.6 1.6v3.8h-.8v-6zM408.3 59.9v-2c0-1.4.9-2.2 2.1-2.2 1.3 0 2.2.7 2.2 2.2v2c0 1.5-.9 2.2-2.1 2.2-1.3-.1-2.2-.8-2.2-2.2m3.5-.1v-2c0-.8-.4-1.5-1.3-1.5-1 0-1.3.7-1.3 1.5v2c0 .9.4 1.5 1.4 1.5.8.1 1.2-.6 1.2-1.5M414.6 56.6h-.9v-.7h.9v-1c0-1 .6-1.5 1.5-1.5.2 0 .5 0 .7.1v.7c-.2 0-.4-.1-.6-.1-.4 0-.8.2-.8.8v1h1.2v.7h-1.2v5.3h-.8v-5.3zM420.5 60.8v-4.3h-1v-.7h1V54h.8v1.8h1.5v.7h-1.5v4c0 .5.2.7.8.7.2 0 .5-.1.7-.1v.7c-.4.1-.7.2-1 .2-.7 0-1.3-.2-1.3-1.2M424.1 53.4h.8v3.4c.4-.8 1.1-1.1 1.8-1.1.9 0 1.5.7 1.5 1.5v4.6h-.8v-4.4c0-.8-.4-1.1-1-1.1-.7 0-1.5.7-1.5 1.7v3.9h-.8v-8.5zM429.7 59.9V58c0-1.5.9-2.3 2.2-2.3 1.3 0 2 .8 2 2.1V59h-3.4v.8c0 1 .5 1.5 1.5 1.5.7 0 1.1-.2 1.5-.4l.3.6c-.5.4-1.2.6-1.9.6-1.2-.1-2.2-.7-2.2-2.2m3.5-1.5v-.6c0-.7-.3-1.4-1.3-1.4-.9 0-1.3.7-1.3 1.4v.6h2.6zM437 60.9l.6-.6c.6.6 1.2.9 2.2.9 1 0 1.6-.6 1.6-1.5s-.7-1.3-1.3-1.7l-1.1-.5c-1-.5-1.6-1.2-1.6-2.1 0-1.2.9-2.2 2.4-2.2.9 0 1.8.3 2.3 1l-.6.6c-.5-.5-1-.8-1.8-.8s-1.4.5-1.4 1.4c0 .7.4 1.1 1.2 1.5l1 .5c1.1.5 1.8 1.2 1.8 2.3 0 1.4-1.1 2.4-2.6 2.4-1.1-.1-2-.5-2.7-1.2M443.8 53.4h.9l3.7 6.7v-6.7h.8v8.5h-.8l-3.8-7v7h-.8zM450.8 59.5v-3.7c0-1.5 1.1-2.5 2.8-2.5 1.5 0 2.5.9 2.5 2.1v.7h-.8v-.5c0-.9-.6-1.6-1.8-1.6-1.2 0-1.8.8-1.8 1.8v3.6c0 1.3.8 1.8 1.9 1.8 1.1 0 1.7-.6 1.7-1.5v-.6h.8v.6c0 1.3-1 2.2-2.5 2.2-1.6.1-2.8-.7-2.8-2.4M457.2 58.1h2.5v.7h-2.5zM461.1 53.4h.8v7.7h3.7v.8h-4.5zM466.6 60.3c0-1.4 1.2-1.9 2.2-1.9h1.1v-1c0-.7-.5-1-1.2-1-.6 0-1.2.3-1.2 1v.3h-.7v-.4c0-1 .9-1.5 2.1-1.5 1.1 0 1.9.5 1.9 1.6v3c0 .5.1 1.2.1 1.5h-.8v-1c-.4.9-1.2 1.1-1.8 1.1-.9 0-1.7-.5-1.7-1.7m3.4-.4V59h-1c-.7 0-1.5.2-1.5 1.2 0 .8.5 1.2 1.1 1.2.7 0 1.4-.6 1.4-1.5M471.8 55.9h.9l1.3 4.9h.1l1.4-4.9h.7l-1.8 6h-.8zM476.9 60.3c0-1.4 1.2-1.9 2.2-1.9h1.1v-1c0-.7-.5-1-1.2-1-.6 0-1.2.3-1.2 1v.3h-.7v-.4c0-1 .9-1.5 2.1-1.5 1.1 0 1.9.5 1.9 1.6v3c0 .5 0 1.2.1 1.5h-.8v-1c-.4.9-1.2 1.1-1.8 1.1-.9 0-1.7-.5-1.7-1.7m3.4-.4V59h-1c-.7 0-1.5.2-1.5 1.2 0 .8.5 1.2 1.1 1.2.8 0 1.4-.6 1.4-1.5M482.8 60.7v-7.3h.8v7.1c0 .4.2.7.7.7h.5v.7c-.3.1-.5.1-.8.1-.7 0-1.2-.5-1.2-1.3M486.1 53.6h.8v1.3h-.8v-1.3zm0 2.3h.8v6h-.8v-6zM488.7 55.9h.8v1c.4-.8 1.1-1.2 1.9-1.2.9 0 1.5.7 1.5 1.5v4.6h-.9v-4.4c0-.8-.4-1.1-1-1.1-.7 0-1.5.7-1.5 1.6v3.9h-.8v-5.9zM496.5 59.5v-3.7c0-1.5 1.1-2.6 2.8-2.6 1.5 0 2.6.9 2.6 2.1v.7h-.8v-.5c0-.9-.7-1.5-1.8-1.5-1.2 0-1.9.8-1.9 1.9v3.6c0 1.1.7 1.8 1.9 1.8 1.3 0 1.8-.7 1.8-1.6v-1.5h-1.8v-.7h2.6v2.3c0 1.3-1 2.2-2.6 2.2s-2.8-.8-2.8-2.5M503.5 55.9h.8v1c.4-.9 1-1.1 1.7-1.1h.4v.7h-.5c-.8 0-1.6.5-1.6 1.6v3.8h-.8v-6zM507.4 59.9v-2c0-1.4.9-2.2 2.1-2.2 1.3 0 2.2.7 2.2 2.2v2c0 1.5-.9 2.2-2.1 2.2-1.4-.1-2.2-.8-2.2-2.2m3.4-.1v-2c0-.8-.4-1.5-1.3-1.5-1 0-1.3.7-1.3 1.5v2c0 .9.4 1.5 1.4 1.5.9.1 1.2-.6 1.2-1.5M513.2 60.5v-4.6h.8v4.4c0 .8.4 1.1 1 1.1.8 0 1.5-.7 1.5-1.6v-3.9h.8v6h-.7v-1c-.3.7-1.1 1.2-1.8 1.2-1-.1-1.6-.7-1.6-1.6M519.1 55.9h.8v1c.4-.8 1.1-1.1 1.7-1.1 1.1 0 1.7.8 1.7 1.7v2.6c0 1.2-.7 2-1.8 2-.6 0-1.3-.4-1.6-1.1v3h-.8v-8.1zm3.4 4.2v-2.6c0-.7-.3-1.2-1.2-1.2-.8 0-1.4.7-1.4 1.8v1.5c0 1 .6 1.8 1.5 1.8.6 0 1.1-.4 1.1-1.3" class="st0"/><path d="M513.4 29h-.9v9h5.8c4.4 0 5.1-2.8 5.1-4.5 0-1.7-.7-4.5-5.1-4.5h-4.9zm4.8 1.9c2.9 0 3.3 1.3 3.3 2.7 0 1.3-.4 2.6-3.3 2.6h-3.9v-5.3h3.9zM475.4 29h6.6c1.7 0 2.2.4 2.2 2.1v4.7c0 1.7-.5 2.1-2.2 2.1h-6.6c-1.7 0-2.2-.4-2.2-2.1v-4.7c0-1.6.5-2.1 2.2-2.1m7 1.9h-7.3v5.3h7.3v-5.3zM489.5 36.1h6.4V29h1.9v6.8c0 1.7-.5 2.1-2.2 2.1h-5.7c-1.7 0-2.2-.4-2.2-2.1V29h1.8v7.1zM508.4 36.1h-5.3V29h-1.9v9h9zM465.2 32.8v1.5h2.6v1.8H461v-5.3h6.8l1.8-1.8h-8.2c-1.7 0-2.2.4-2.2 2.1v4.7c0 1.7.5 2.1 2.2 2.1h6.2c1.7 0 2.2-.4 2.2-2.1v-3.1h-4.6zM406.1 12.1h1.8v3.5h6.1v-3.5h1.9V21H414v-3.5h-6.1V21h-1.8zM430.9 19.2h6.4v-7.1h1.9v6.8c0 1.7-.5 2.1-2.2 2.1h-5.7c-1.7 0-2.2-.4-2.2-2.1v-6.8h1.8v7.1zM404.6 12.1h-9.9v1.8h3.6V21h1.9v-7.1h2.6zM449.3 19.2H444v-7.1h-1.8V21h8.9zM368.2 12.1V21h1.9v-3.5h3.7v-1.9h-3.7v-1.7h4.9l1.8-1.8zM420.9 13.9h4.9l1.8-1.8H419V21h1.9v-3.5h3.7v-1.9h-3.7zM378 21c1.1-1.9 2.9-5.1 3.7-6.5.8 1.4 2.6 4.6 3.7 6.5h2.1l-5.1-9H381l-5.1 9h2.1zM390.1 12.1h1.8v9h-1.8z" class="st2"/><path d="M459.1 21l-3.8 3.9h17.9l-3.8-3.9z" class="st3"/><path d="M455.3 24.9l3.8-3.9V10.8l-3.8-3.9z" class="st3"/><path d="M451.1 29l3.9-3.8h-17.9l3.8 3.8z" class="st4"/><path d="M451.1 29v10.3l3.9 3.8V25.2z" class="st4"/><path d="M16.6 10.6H129V62H16.6V10.6z" class="st5"/><path d="M16.6 10.6h112.2V62H16.6V10.6z" class="st5"/><path d="M16.6 10.6h112.2V62H16.6V10.6z" class="st5"/><path d="M113.8 60c0 .5.4.6.7.6h.6c.5 0 .5.8 0 .8h-5.3c-.5 0-.5-.8 0-.8h.5c.2 0 .7-.1.7-.6v-8.2c0-.5-.4-.6-.7-.6h-.5c-.5 0-.5-.8 0-.8h5.3c.5 0 .5.8 0 .8h-.6c-.2 0-.7.1-.7.6V60zm-19 0c.2.6-.2.6-.4.6h-.6c-.5 0-.5.8 0 .8h5.3c.5 0 .5-.8 0-.8h-.4c-.2 0-.5 0-.8-.6 0 0-4.1-9.5-4.2-9.7-.1-.2-.2-.2-.3-.2h-.6c-.2 0-.3.2-.3.2 0 .1-4.2 9.6-4.2 9.6-.3.6-.5.6-.7.6H87c-.5 0-.5.8 0 .8h3.8c.5 0 .5-.8 0-.8h-1c-.2 0-.7.1-.5-.6l2.7-6.6 2.8 6.7z" class="st6"/><path d="M93.8 57.6l-.3-.8h-2.8l-.3.8h3.4zm-11.3-5.8c-.2-.6.2-.6.4-.6h.6c.5 0 .5-.8 0-.8h-5.3c-.5 0-.5.8 0 .8h.4c.2 0 .5 0 .8.6 0 0 4.1 9.4 4.2 9.6.1.2.2.2.3.2h.4c.1 0 .2 0 .3-.2 0-.1 4.3-9.6 4.3-9.6.3-.6.5-.6.7-.6h.5c.5 0 .5-.8 0-.8h-3.3c-.5 0-.5.8 0 .8h.5c.2 0 .7-.1.5.6L85 58.1l-2.5-6.3zM76.6 60c.2.6-.2.6-.4.6h-.6c-.4 0-.4.8 0 .8h5.3c.5 0 .5-.8 0-.8h-.4c-.2 0-.5 0-.8-.6 0 0-4.1-9.5-4.2-9.7-.1-.2-.2-.2-.3-.2h-.6c-.1 0-.2 0-.3.2 0 .1-4.2 9.7-4.2 9.7-.3.6-.5.6-.7.6h-.6c-.5 0-.5.8 0 .8h3.8c.5 0 .5-.8 0-.8h-1c-.2 0-.7.1-.5-.6l2.7-6.6 2.8 6.6z" class="st6"/><path d="M75.6 57.6l-.3-.8h-2.8l-.3.8h3.4zm-21.7-3.8l2.2 2.2-2.2 2.2-2.2-2.2 2.2-2.2zm-37.3 4.8c0-.4.8-.5.8 0 0 .9.4 2.7 2.7 2.7s2.5-1.6 2.5-2.2c0-2.5-5.7-1.9-5.7-5.7 0-2.7 2.4-3.6 4.2-3.6 1.6 0 2.3.4 2.5.5.2.2.2.3.2.4v2c0 .3-.4.5-.6 0-.2-.5-.8-2.3-2.1-2.3-1.5 0-2.1 1.1-2.1 1.7 0 2.5 5.7 1.5 5.7 5.6 0 2.3-2.2 4.1-4.6 4.1-2.4 0-3.2-1-3.4-1.2l-.1-2zm31.5.1c.2-.4.6-.3.6.2v1.5c0 .1 0 .2-.1.3-.1.1-1.4 1.2-3.6 1.2-3.2 0-6.8-1.9-6.8-5.9 0-3.5 3.7-5.8 6.9-5.8.9 0 2.6.4 2.9.5.3.1.4.3.4.4 0 .2.2 1.2.2 1.5 0 .3-.4.6-.7.1-.3-.5-1-1.8-2.8-1.8-1.9 0-3.9 1.4-3.9 5.1 0 3.6 2.2 5.1 3.9 5.1 1 0 2.3-.5 3-2.4m72.5-8.3l5.7 7v-5.7c0-.5-.4-.6-.7-.6h-.5c-.5 0-.5-.8 0-.8h3.4c.5 0 .5.8 0 .8h-.6c-.2 0-.7.1-.7.6v9.8c0 .1 0 .2-.2.2h-.9c-.1 0-.1 0-.2-.1s-7.3-9.1-7.3-9.1V60c0 .5.4.6.7.6h.6c.5 0 .5.8 0 .8h-3.4c-.5 0-.5-.8 0-.8h.6c.2 0 .7-.1.7-.6v-8c0-.5-.4-.8-.8-.8h-.5c-.5 0-.5-.8 0-.8h4.1zm-90.9 0l5.7 7v-5.7c0-.5-.4-.6-.7-.6h-.5c-.5 0-.5-.8 0-.8h3.4c.5 0 .5.8 0 .8H37c-.2 0-.7.1-.7.6v9.8c0 .1 0 .2-.2.2h-.9c-.1 0-.1 0-.2-.1s-7.3-9.1-7.3-9.1V60c0 .5.4.6.7.6h.6c.5 0 .5.8 0 .8h-3.4c-.5 0-.5-.8 0-.8h.6c.2 0 .7-.1.7-.6v-8c0-.5-.4-.8-.8-.8h-.5c-.5 0-.5-.8 0-.8h4.1zm35 10.5c.4 0 1.8 0 2.7-1.9.2-.4.8-.3.7.1l-.3 2.1c0 .2-.1.3-.3.3h-8.3c-.5 0-.5-.8 0-.8h.6c.2 0 .7-.1.7-.6v-8.2c0-.5-.4-.6-.7-.6h-.6c-.5 0-.5-.8 0-.8h5.3c.5 0 .5.8 0 .8H64c-.2 0-.7.1-.7.6v7.8c.1.9.7 1.2 1.4 1.2m41 0c.4 0 1.8 0 2.7-1.9.2-.4.8-.3.7.1l-.3 2.1c0 .2-.1.3-.3.3h-8.3c-.5 0-.5-.8 0-.8h.5c.2 0 .7-.1.7-.6v-8.2c0-.5-.4-.6-.7-.6h-.5c-.5 0-.5-.8 0-.8h5.3c.5 0 .5.8 0 .8h-.5c-.2 0-.7.1-.7.6v7.8c0 .9.6 1.2 1.4 1.2" class="st6"/><path d="M38.4 25.1l7.7 7.7 7.7-7.7-7.7-7.7-7.7 7.7z" class="st7"/><path d="M47.8 36.8c1.2.9 2.6 1.6 4 2 5.1-2.9 10.1-9.2 10.1-13.7 0-4.6-5.2-10.9-10.4-13.8-1.4.5-2.8 1.2-3.9 2.1 3.7 1.5 10.9 9 10.9 11.7 0 2.7-7 10.1-10.7 11.7" class="st7"/><path d="M57.4 10.6c7.5.6 13.3 6.8 13.3 14.4 0 7.5-5.7 13.6-12.9 14.4 4.4-3.6 7.5-9 7.5-14.3 0-5.3-3.3-10.9-7.9-14.5" class="st7"/></svg>
