<svg xmlns="http://www.w3.org/2000/svg" id="Layer_1" viewBox="0 0 181 73"><style>.st0{fill:#575756}.st1{fill:#2f4659}</style><path d="M10.3 53.3h1.1l2.1 4.3 2-4.3h1.1v8.5h-.8v-7.3h-.1l-2 4.3h-.6l-2-4.3v7.3h-.8zM18.2 59.7v-1.8c0-1.5.9-2.3 2.2-2.3 1.3 0 2 .8 2 2.1v1.2H19v.8c0 1 .5 1.5 1.5 1.5.7 0 1.1-.2 1.5-.4l.3.6c-.5.4-1.2.6-1.9.6-1.3-.1-2.2-.8-2.2-2.3m3.4-1.4v-.6c0-.7-.3-1.4-1.3-1.4-.9 0-1.3.7-1.3 1.4v.6h2.6zM23.9 55.7h.8v1c.4-.8 1.1-1.2 1.9-1.2.8 0 1.3.6 1.5 1.2.4-.8 1.1-1.2 1.9-1.2.9 0 1.5.7 1.5 1.5v4.6h-.8v-4.4c0-.8-.4-1.1-1-1.1-.7 0-1.5.7-1.5 1.6v4h-.8v-4.5c0-.8-.4-1-1-1-.7 0-1.5.7-1.5 1.6v3.9h-.8v-6zM33.9 60.8v1h-.7v-8.4h.8v3.4c.3-.8 1.1-1.1 1.7-1.1 1.1 0 1.7.8 1.7 1.8V60c0 1.2-.8 1.9-1.8 1.9-.7 0-1.5-.4-1.7-1.1m2.6-.8v-2.6c0-.7-.4-1.1-1.2-1.1-.7 0-1.4.7-1.4 1.8v1.5c0 1 .7 1.7 1.5 1.7.7 0 1.1-.5 1.1-1.3M38.7 59.7v-1.8c0-1.5.9-2.3 2.2-2.3 1.3 0 2 .8 2 2.1v1.2h-3.4v.8c0 1 .5 1.5 1.5 1.5.7 0 1.1-.2 1.5-.4l.3.6c-.5.4-1.2.6-1.9.6-1.3-.1-2.2-.8-2.2-2.3m3.4-1.4v-.6c0-.7-.3-1.4-1.3-1.4-.9 0-1.3.7-1.3 1.4v.6h2.6zM44.3 55.7h.8v1c.4-.9 1-1.1 1.7-1.1h.4v.7h-.5c-.8 0-1.6.5-1.6 1.6v3.8h-.8v-6zM50.3 59.7v-2c0-1.4.9-2.2 2.1-2.2 1.3 0 2.2.7 2.2 2.2v2c0 1.5-.9 2.2-2.1 2.2-1.3 0-2.2-.7-2.2-2.2m3.5 0v-2c0-.8-.4-1.5-1.3-1.5-1 0-1.3.7-1.3 1.5v2c0 .9.4 1.5 1.3 1.5 1 0 1.3-.6 1.3-1.5M56.6 56.4h-.9v-.7h.9v-1c0-1 .6-1.5 1.5-1.5.2 0 .5 0 .7.1v.7c-.2 0-.4-.1-.6-.1-.4 0-.8.2-.8.8v1h1.2v.7h-1.2v5.3h-.8v-5.3zM62.5 60.7v-4.3h-1v-.7h1V54h.8v1.8h1.5v.7h-1.5v4c0 .5.2.7.8.7.2 0 .5-.1.7-.1v.7c-.4.1-.7.2-1 .2-.6-.1-1.3-.4-1.3-1.3M66.1 53.3h.8v3.4c.4-.8 1.1-1.1 1.8-1.1.9 0 1.5.7 1.5 1.5v4.6h-.8v-4.4c0-.8-.4-1.1-1-1.1-.7 0-1.5.7-1.5 1.7v3.9h-.8v-8.5zM71.7 59.7v-1.8c0-1.5.9-2.3 2.2-2.3 1.3 0 2 .8 2 2.1v1.2h-3.4v.8c0 1 .5 1.5 1.5 1.5.7 0 1.1-.2 1.5-.4l.3.6c-.5.4-1.2.6-1.9.6-1.2-.1-2.2-.8-2.2-2.3m3.5-1.4v-.6c0-.7-.3-1.4-1.3-1.4-.9 0-1.3.7-1.3 1.4v.6h2.6zM79 60.8l.6-.6c.6.6 1.2.9 2.2.9 1 0 1.6-.6 1.6-1.5s-.6-1.3-1.3-1.7l-1.1-.4c-1-.5-1.6-1.2-1.6-2.1 0-1.2.9-2.2 2.4-2.2.9 0 1.8.3 2.3 1l-.6.6c-.5-.5-1-.8-1.8-.8s-1.4.5-1.4 1.4c0 .7.4 1.1 1.2 1.5l1 .5c1.1.5 1.8 1.2 1.8 2.3 0 1.4-1.1 2.4-2.6 2.4-1.1-.2-2-.6-2.7-1.3M85.8 53.3h.9l3.7 6.7v-6.7h.8v8.5h-.8l-3.8-7v7h-.8zM92.8 59.4v-3.7c0-1.5 1.1-2.5 2.8-2.5 1.5 0 2.5.9 2.5 2.1v.7h-.8v-.5c0-.9-.6-1.6-1.8-1.6-1.2 0-1.8.8-1.8 1.8v3.6c0 1.3.8 1.8 1.9 1.8 1.1 0 1.7-.6 1.7-1.5V59h.8v.6c0 1.3-1 2.2-2.5 2.2-1.6.1-2.8-.7-2.8-2.4M99.2 57.9h2.5v.7h-2.5zM103 53.3h.9V61h3.7v.8H103zM108.6 60.2c0-1.4 1.2-1.9 2.2-1.9h1.1v-1c0-.7-.5-1-1.2-1-.6 0-1.2.3-1.2 1v.3h-.7v-.4c0-1 .9-1.5 2.1-1.5 1.1 0 1.9.5 1.9 1.6v3c0 .5 0 1.2.1 1.5h-.8v-1c-.4.9-1.2 1.1-1.8 1.1-.9 0-1.7-.6-1.7-1.7m3.4-.4v-.9h-1c-.7 0-1.5.2-1.5 1.2 0 .8.5 1.2 1.1 1.2.7-.1 1.4-.7 1.4-1.5M113.8 55.7h.9l1.3 4.9 1.4-4.9h.8l-1.8 6.1h-.8zM118.9 60.2c0-1.4 1.2-1.9 2.2-1.9h1.1v-1c0-.7-.5-1-1.2-1-.6 0-1.2.3-1.2 1v.3h-.7v-.4c0-1 .9-1.5 2.1-1.5 1.1 0 1.9.5 1.9 1.6v3c0 .5 0 1.2.1 1.5h-.8v-1c-.4.9-1.2 1.1-1.8 1.1-.9 0-1.7-.6-1.7-1.7m3.4-.4v-.9h-1c-.7 0-1.5.2-1.5 1.2 0 .8.5 1.2 1.1 1.2.7-.1 1.4-.7 1.4-1.5M124.8 60.6v-7.3h.8v7.1c0 .4.2.7.7.7h.5v.7c-.3.1-.5.1-.8.1-.7-.1-1.2-.5-1.2-1.3M128.1 53.4h.8v1.3h-.8v-1.3zm0 2.3h.8v6h-.8v-6zM130.6 55.7h.8v1c.4-.8 1.1-1.2 1.9-1.2.9 0 1.5.7 1.5 1.5v4.6h-.8v-4.4c0-.8-.4-1.1-1-1.1-.7 0-1.5.7-1.5 1.6v3.9h-.8v-5.9zM138.5 59.4v-3.7c0-1.5 1.1-2.6 2.8-2.6 1.5 0 2.6.9 2.6 2.1v.6h-.9v-.5c0-.9-.7-1.5-1.8-1.5-1.2 0-1.9.8-1.9 1.9v3.6c0 1.1.7 1.8 1.9 1.8 1.3 0 1.8-.7 1.8-1.6V58h-1.8v-.7h2.6v2.3c0 1.3-1 2.2-2.6 2.2-1.5.1-2.7-.7-2.7-2.4M145.5 55.7h.8v1c.4-.9 1-1.1 1.7-1.1h.4v.7h-.5c-.8 0-1.6.5-1.6 1.6v3.8h-.8v-6zM149.3 59.7v-2c0-1.4.9-2.2 2.1-2.2 1.3 0 2.2.7 2.2 2.2v2c0 1.5-.9 2.2-2.1 2.2-1.3 0-2.2-.7-2.2-2.2m3.5 0v-2c0-.8-.4-1.5-1.3-1.5-1 0-1.3.7-1.3 1.5v2c0 .9.4 1.5 1.3 1.5 1 0 1.3-.6 1.3-1.5M155.1 60.4v-4.6h.8v4.4c0 .8.4 1.1 1 1.1.8 0 1.5-.7 1.5-1.6v-3.9h.8v6h-.7v-1c-.3.7-1.1 1.2-1.8 1.2-.9-.1-1.6-.7-1.6-1.6M161 55.7h.8v1c.4-.8 1.1-1.1 1.7-1.1 1.1 0 1.7.8 1.7 1.7v2.6c0 1.2-.7 2-1.8 2-.6 0-1.3-.4-1.6-1.1v3h-.8v-8.1zm3.5 4.3v-2.6c0-.7-.3-1.2-1.2-1.2-.8 0-1.4.7-1.4 1.8v1.5c0 1 .6 1.8 1.5 1.8.6 0 1.1-.4 1.1-1.3" class="st0"/><path d="M22.3 10.6l-12 31.6H17l9.1-25.1 9.3 25.1h7.1L30.2 10.6zM48.9 15.6h-8.8l-1.9-5h26.3v5h-9.2v26.6h-6.4zM74.8 27.4v14.8h-6.4V10.6h6.4v13.5l11.7-13.5h7.7L81.1 25.4l13.6 16.8h-8.1zM98.3 10.6h6.4v31.6h-6.4zM132.4 33.7V10.6h5.8v31.6h-7.7L117.8 19v23.2H112V10.6h7.8zM163.1 16.7c-2-1-4.2-1.7-6.9-1.7-2.2 0-5.4 1-5.4 4s3.7 3.8 7.2 5.2c4.2 1.7 7.4 3.8 7.4 9 0 6.6-5.4 10-12.4 10-3.6 0-6.7-.8-9-2l.8-5.7c2.2 1.4 5.1 2.4 8.1 2.4 3.3 0 5.7-1.3 5.7-4.1 0-2.9-3.4-3.9-6.9-5.3-3.7-1.5-7.6-3.3-7.6-8.8 0-6.6 5.9-9.8 11.7-9.8 3.3 0 5.8.7 8 1.7l-.7 5.1z" class="st1"/></svg>
