<svg xmlns="http://www.w3.org/2000/svg" id="Layer_1" viewBox="0 0 179 70"><style>.st0{fill:#575756}.st2{fill:#2c4255}.st3{fill:#c8d400}.st4{fill:#0091d3}</style><path d="M12.6 53.4h1.1l2.1 4.3 2-4.3h1.1v8.5h-.8v-7.3H18L16 59h-.6l-2-4.3v7.2h-.8zM20.5 59.9V58c0-1.5.9-2.3 2.2-2.3 1.3 0 2 .8 2 2.1V59h-3.4v.8c0 1 .5 1.5 1.5 1.5.7 0 1.1-.2 1.5-.4l.3.6c-.5.4-1.2.6-1.9.6-1.3-.1-2.2-.7-2.2-2.2m3.4-1.5v-.6c0-.7-.3-1.4-1.3-1.4-.9 0-1.3.7-1.3 1.4v.6h2.6zM26.2 55.9h.8v1c.4-.8 1.1-1.2 1.9-1.2.8 0 1.3.6 1.5 1.2.4-.8 1.1-1.2 1.9-1.2.9 0 1.5.7 1.5 1.5v4.6H33v-4.4c0-.8-.4-1.1-1-1.1-.7 0-1.5.7-1.5 1.6v4h-.8v-4.5c0-.8-.4-1-1-1-.7 0-1.5.7-1.5 1.6v3.9h-.8v-6zM36.2 60.9v1h-.7v-8.5h.8v3.4c.3-.8 1.1-1.1 1.7-1.1 1.1 0 1.7.8 1.7 1.8v2.6c0 1.2-.8 1.9-1.8 1.9-.7 0-1.5-.4-1.7-1.1m2.6-.8v-2.6c0-.7-.4-1.1-1.2-1.1-.7 0-1.4.7-1.4 1.8v1.5c0 1 .7 1.7 1.5 1.7.7 0 1.1-.4 1.1-1.3M41 59.9V58c0-1.5 1-2.3 2.2-2.3 1.3 0 2 .8 2 2.1V59h-3.4v.8c0 1 .5 1.5 1.5 1.5.7 0 1.1-.2 1.5-.4l.3.6c-.5.4-1.2.6-1.9.6-1.3-.1-2.2-.7-2.2-2.2m3.4-1.5v-.6c0-.7-.3-1.4-1.3-1.4-.9 0-1.3.7-1.3 1.4v.6h2.6zM46.7 55.9h.8v1c.4-.9 1-1.1 1.7-1.1h.4v.7h-.5c-.8 0-1.6.5-1.6 1.6v3.8h-.8v-6zM52.6 59.9v-2c0-1.4.9-2.2 2.1-2.2 1.3 0 2.2.7 2.2 2.2v2c0 1.5-.9 2.2-2.1 2.2-1.3-.1-2.2-.8-2.2-2.2m3.5-.1v-2c0-.8-.4-1.5-1.3-1.5-1 0-1.3.7-1.3 1.5v2c0 .9.4 1.5 1.4 1.5.9.1 1.2-.6 1.2-1.5M58.9 56.6H58v-.7h.9v-1c0-1 .6-1.5 1.5-1.5.2 0 .5 0 .7.1v.7c-.2 0-.4-.1-.6-.1-.4 0-.8.2-.8.8v1h1.2v.7h-1.2v5.3h-.8v-5.3zM64.8 60.8v-4.3h-1v-.7h1V54h.8v1.8h1.5v.7h-1.5v4c0 .5.2.7.8.7.2 0 .5-.1.7-.1v.7c-.4.1-.7.2-1 .2-.6 0-1.3-.2-1.3-1.2M68.4 53.4h.8v3.4c.4-.8 1.1-1.1 1.8-1.1.9 0 1.5.7 1.5 1.5v4.6h-.8v-4.4c0-.8-.4-1.1-1-1.1-.7 0-1.5.7-1.5 1.7v3.9h-.8v-8.5zM74.1 59.9V58c0-1.5.9-2.3 2.2-2.3 1.3 0 2 .8 2 2.1V59h-3.4v.8c0 1 .5 1.5 1.5 1.5.7 0 1.1-.2 1.5-.4l.3.6c-.5.4-1.2.5-1.9.5-1.3 0-2.2-.6-2.2-2.1m3.4-1.5v-.6c0-.7-.3-1.4-1.3-1.4-.9 0-1.3.7-1.3 1.4v.6h2.6zM81.4 60.9l.6-.6c.6.6 1.2.9 2.2.9 1 0 1.6-.6 1.6-1.5s-.7-1.3-1.3-1.7l-1.1-.5c-1-.5-1.6-1.2-1.6-2.1 0-1.2.9-2.2 2.4-2.2.9 0 1.8.3 2.3 1l-.5.6c-.5-.5-1-.8-1.8-.8s-1.4.5-1.4 1.4c0 .7.4 1.1 1.2 1.5l1 .5c1.1.5 1.8 1.2 1.8 2.3 0 1.4-1.1 2.4-2.6 2.4-1.3-.1-2.2-.5-2.8-1.2M88.2 53.4h.8l3.7 6.7v-6.7h.8v8.5h-.7l-3.8-7h-.1v7h-.7zM95.1 59.5v-3.7c0-1.5 1.1-2.5 2.8-2.5 1.5 0 2.5.9 2.5 2.1v.7h-.8v-.5c0-.9-.6-1.6-1.8-1.6-1.2 0-1.8.8-1.8 1.8v3.6c0 1.3.8 1.8 1.9 1.8 1.1 0 1.7-.6 1.7-1.5v-.6h.8v.6c0 1.3-1 2.2-2.5 2.2-1.6.1-2.8-.7-2.8-2.4M101.5 58.1h2.5v.7h-2.5zM105.4 53.4h.9v7.7h3.7v.8h-4.6zM110.9 60.3c0-1.4 1.2-1.9 2.2-1.9h1.1v-1c0-.7-.5-1-1.2-1-.6 0-1.2.3-1.2 1v.3h-.7v-.4c0-1 .9-1.5 2.1-1.5 1.1 0 1.9.5 1.9 1.6v3c0 .5.1 1.2.1 1.5h-.8v-1c-.4.9-1.2 1.1-1.8 1.1-.9 0-1.7-.5-1.7-1.7m3.4-.4V59h-1c-.7 0-1.5.2-1.5 1.2 0 .8.5 1.2 1.1 1.2.8 0 1.4-.6 1.4-1.5M116.1 55.9h.9l1.4 4.9 1.4-4.9h.8l-1.9 6h-.8zM121.3 60.3c0-1.4 1.2-1.9 2.2-1.9h1.1v-1c0-.7-.5-1-1.2-1-.6 0-1.2.3-1.2 1v.3h-.7v-.4c0-1 .9-1.5 2.1-1.5 1.1 0 1.9.5 1.9 1.6v3c0 .5 0 1.2.1 1.5h-.8v-1c-.4.9-1.2 1.1-1.8 1.1-.9 0-1.7-.5-1.7-1.7m3.3-.4V59h-1c-.7 0-1.5.2-1.5 1.2 0 .8.5 1.2 1.1 1.2.8 0 1.4-.6 1.4-1.5M127.2 60.7v-7.3h.8v7.1c0 .4.2.7.7.7h.5v.7c-.3.1-.5.1-.8.1-.8 0-1.2-.5-1.2-1.3M130.4 53.6h.8v1.3h-.8v-1.3zm0 2.3h.8v6h-.8v-6zM133 55.9h.8v1c.4-.8 1.1-1.2 1.9-1.2.9 0 1.5.7 1.5 1.5v4.6h-.8v-4.4c0-.8-.4-1.1-1-1.1-.7 0-1.5.7-1.5 1.6v3.9h-.9v-5.9zM140.8 59.5v-3.7c0-1.5 1.1-2.6 2.8-2.6 1.5 0 2.6.9 2.6 2.1v.7h-.8v-.5c0-.9-.7-1.5-1.8-1.5-1.2 0-1.9.8-1.9 1.9v3.6c0 1.1.7 1.8 1.9 1.8 1.3 0 1.8-.7 1.8-1.6v-1.5h-1.8v-.7h2.6v2.3c0 1.3-1 2.2-2.6 2.2s-2.8-.8-2.8-2.5M147.9 55.9h.8v1c.4-.9 1-1.1 1.7-1.1h.4v.7h-.5c-.8 0-1.6.5-1.6 1.6v3.8h-.8v-6zM151.7 59.9v-2c0-1.4.9-2.2 2.1-2.2 1.3 0 2.2.7 2.2 2.2v2c0 1.5-.9 2.2-2.1 2.2-1.3-.1-2.2-.8-2.2-2.2m3.5-.1v-2c0-.8-.4-1.5-1.3-1.5-1 0-1.3.7-1.3 1.5v2c0 .9.4 1.5 1.4 1.5.9.1 1.2-.6 1.2-1.5M157.5 60.5v-4.6h.8v4.4c0 .8.4 1.1 1 1.1.8 0 1.5-.7 1.5-1.6v-3.9h.8v6h-.7v-1c-.3.7-1.1 1.2-1.8 1.2-1-.1-1.6-.7-1.6-1.6M163.4 55.9h.8v1c.4-.8 1.1-1.1 1.7-1.1 1.1 0 1.7.8 1.7 1.7v2.6c0 1.2-.7 2-1.8 2-.6 0-1.3-.4-1.6-1.1v3h-.8v-8.1zm3.4 4.2v-2.6c0-.7-.3-1.2-1.2-1.2-.8 0-1.4.7-1.4 1.8v1.5c0 1 .6 1.8 1.5 1.8.7 0 1.1-.4 1.1-1.3" class="st0"/><path d="M157.7 29h-.9v9h5.8c4.4 0 5.1-2.8 5.1-4.5 0-1.7-.7-4.5-5.1-4.5h-4.9zm4.8 1.9c2.9 0 3.3 1.3 3.3 2.7 0 1.3-.4 2.6-3.3 2.6h-3.9v-5.3h3.9zM119.8 29h6.6c1.7 0 2.2.4 2.2 2.1v4.7c0 1.7-.5 2.1-2.2 2.1h-6.6c-1.7 0-2.2-.4-2.2-2.1v-4.7c-.1-1.6.5-2.1 2.2-2.1m6.9 1.9h-7.3v5.3h7.3v-5.3zM133.8 36.1h6.4V29h1.9v6.8c0 1.7-.5 2.1-2.2 2.1h-5.7c-1.7 0-2.2-.4-2.2-2.1V29h1.8v7.1zM152.7 36.1h-5.3V29h-1.8v9h8.9zM109.6 32.8v1.5h2.6v1.8h-6.9v-5.3h6.8l1.8-1.8h-8.2c-1.7 0-2.2.4-2.2 2.1v4.7c0 1.7.5 2.1 2.2 2.1h6.2c1.7 0 2.2-.4 2.2-2.1v-3.1h-4.5zM50.4 12.1h1.9v3.5h6.1v-3.5h1.8V21h-1.8v-3.5h-6.1V21h-1.9zM75.2 19.2h6.4v-7.1h1.9v6.8c0 1.7-.5 2.1-2.2 2.1h-5.7c-1.7 0-2.2-.4-2.2-2.1v-6.8h1.8v7.1zM49 12.1H39v1.8h3.7V21h1.8v-7.1h2.6zM93.6 19.2h-5.3v-7.1h-1.8V21h9zM12.6 12.1V21h1.8v-3.5h3.7v-1.9h-3.7v-1.7h4.9l1.9-1.8zM65.2 13.9h4.9l1.9-1.8h-8.6V21h1.8v-3.5h3.7v-1.9h-3.7zM22.4 21c1.1-1.9 2.9-5.1 3.7-6.5.8 1.4 2.6 4.6 3.7 6.5h2.1l-5.1-9h-1.4l-5.1 9h2.1zM34.5 12.1h1.8v9h-1.8z" class="st2"/><path d="M103.5 21l-3.9 3.9h18l-3.9-3.9z" class="st3"/><path d="M99.6 24.9l3.9-3.9V10.8l-3.9-3.9z" class="st3"/><path d="M95.5 29l3.8-3.8H81.4l3.8 3.8zM95.5 29v10.3l3.8 3.8V25.2z" class="st4"/></svg>
