<svg xmlns="http://www.w3.org/2000/svg" viewBox="0 0 367.22 102.67"><defs><style>.cls-1{fill:gray}</style></defs><g id="Layer_2" data-name="Layer 2"><g id="Layer_1-2" data-name="Layer 1"><path d="M50.05 5.18c.56-.34 1.11-.67 1.67-1a35.08 35.08 0 1 0-23.08 65.39A53.11 53.11 0 0 1 50.05 5.18zM103.37 2.34a13.32 13.32 0 1 1-4.27 18.35 13.32 13.32 0 0 1 4.27-18.35z" class="cls-1"/><path d="M69.17 91.24a25.51 25.51 0 0 1 47.11-18 44.61 44.61 0 0 0 3.19-39.49 22 22 0 0 1-30.1-26.59A44.55 44.55 0 1 0 70 94.06a28.59 28.59 0 0 1-.83-2.82z" class="cls-1"/><path d="M110.59 82.17a16.9 16.9 0 1 1-20.12-12.89 16.9 16.9 0 0 1 20.12 12.89zM174.56 88.65c-22.64 0-37.85-14.81-37.85-36.84S151.92 15 174.56 15s37.84 14.8 37.84 36.84-15.21 36.81-37.84 36.81zm0-60.52c-13.47 0-22.88 9.73-22.88 23.68s9.41 23.68 22.88 23.68 22.87-9.74 22.87-23.68-9.43-23.68-22.87-23.68zM357.48 87.87c-6.34 0-17-1.81-17-14V49.74h-9.68V39.35h9.69V24.82h6.28c4.9 0 7.14 2.83 7.14 5.45v9.08h13.31v10.39h-13.31v17.2c0 5.23.61 9.93 8 9.93a15.66 15.66 0 0 0 5.3-.79V86.6a30.8 30.8 0 0 1-9.73 1.27zM270.42 22v23c3.37-3.8 8.9-5.52 13.95-5.52 14 0 21.82 11.94 21.81 24.31 0 12.67-7.78 24.75-22.05 24.75a20.52 20.52 0 0 1-13.71-5.45v4.34H256.9V16h7.53a6 6 0 0 1 5.99 6zM281 77.52c7.13 0 11.87-7.21 11.87-13.5S288.13 50.61 281 50.6s-11.6 7.12-11.61 13.4 4.44 13.51 11.61 13.52zM218.37 87.61V39.87h13.48v7.52c3.23-6 8.86-7.77 15-7.77a21.1 21.1 0 0 1 4.37.36v11.44a22.91 22.91 0 0 0-5.78-.8c-12.58 0-13.62 8.12-13.62 17.16V81.3c0 6.17-5.94 6.3-6.22 6.31zM318.5 22.55a6.76 6.76 0 1 1-6.75 6.76 6.76 6.76 0 0 1 6.75-6.76zM325.09 39.74h-13.48v47.74h7.26c.28 0 6.22-.13 6.22-6.3V39.74z" class="cls-1"/></g></g></svg>
