<svg xmlns="http://www.w3.org/2000/svg" viewBox="0 0 367.22 102.67"><defs><style>.cls-1{fill:#53a00a;}.cls-2{fill:#d64405;}.cls-3{fill:#0b7384;}.cls-4{fill:#0e415a;}.cls-5{fill:gray;}</style></defs><title>orbit_logotype_web_2018_1</title><g id="Layer_2" data-name="Layer 2"><g id="Layer_1-2" data-name="Layer 1"><path class="cls-1" d="M50.05,5.18c.56-.34,1.11-.67,1.67-1A35.08,35.08,0,1,0,28.64,69.57,53.11,53.11,0,0,1,50.05,5.18Z"/><path class="cls-2" d="M103.37,2.34A13.32,13.32,0,1,1,99.1,20.69,13.32,13.32,0,0,1,103.37,2.34Z"/><path class="cls-3" d="M69.17,91.24a25.51,25.51,0,0,1,47.11-18,44.61,44.61,0,0,0,3.19-39.49A22,22,0,0,1,89.37,7.16,44.55,44.55,0,1,0,70,94.06,28.59,28.59,0,0,1,69.17,91.24Z"/><path class="cls-4" d="M110.59,82.17A16.9,16.9,0,1,1,90.47,69.28,16.9,16.9,0,0,1,110.59,82.17Z"/><path class="cls-5" d="M174.56,88.65c-22.64,0-37.85-14.81-37.85-36.84S151.92,15,174.56,15s37.84,14.8,37.84,36.84S197.19,88.65,174.56,88.65Zm0-60.52c-13.47,0-22.88,9.73-22.88,23.68s9.41,23.68,22.88,23.68,22.87-9.74,22.87-23.68S188,28.13,174.56,28.13Z"/><path class="cls-5" d="M357.48,87.87c-6.34,0-17-1.81-17-14V49.74H330.8V39.35h9.69V24.82h6.28c4.9,0,7.14,2.83,7.14,5.45v9.08h13.31V49.74H353.91v17.2c0,5.23.61,9.93,8,9.93a15.66,15.66,0,0,0,5.3-.79V86.6A30.8,30.8,0,0,1,357.48,87.87Z"/><path class="cls-5" d="M270.42,22v23c3.37-3.8,8.9-5.52,13.95-5.52,14,0,21.82,11.94,21.81,24.31,0,12.67-7.78,24.75-22.05,24.75a20.52,20.52,0,0,1-13.71-5.45v4.34H256.9V16h7.53A6,6,0,0,1,270.42,22ZM281,77.52c7.13,0,11.87-7.21,11.87-13.5S288.13,50.61,281,50.6s-11.6,7.12-11.61,13.4S273.83,77.51,281,77.52Z"/><path class="cls-5" d="M218.37,87.61V39.87h13.48v7.52c3.23-6,8.86-7.77,15-7.77a21.1,21.1,0,0,1,4.37.36V51.42a22.91,22.91,0,0,0-5.78-.8c-12.58,0-13.62,8.12-13.62,17.16V81.3c0,6.17-5.94,6.3-6.22,6.31Z"/><path class="cls-5" d="M318.5,22.55a6.76,6.76,0,1,1-6.75,6.76A6.76,6.76,0,0,1,318.5,22.55Z"/><path class="cls-5" d="M325.09,39.74H311.61V87.48h7.26c.28,0,6.22-.13,6.22-6.3V39.74Z"/></g></g></svg>