<svg xmlns="http://www.w3.org/2000/svg" width="496" height="260" overflow="visible"><path fill="none" d="M12.576 22.179h470.848v215.643H12.576z"/><path fill="none" d="M12.576 22.179h470.035v215.643H12.576z"/><path fill="none" d="M12.576 22.179h470.035v215.643H12.576z"/><path d="M419.826 229.432c0 1.896 1.795 2.492 2.811 2.492h2.305c1.891 0 1.891 3.271 0 3.271h-22.225c-1.889 0-1.889-3.271 0-3.271h2.303c1.02 0 2.813-.596 2.813-2.492v-34.529c0-1.888-1.793-2.496-2.813-2.496h-2.303c-1.889 0-1.889-3.268 0-3.268h22.225c1.891 0 1.891 3.268 0 3.268h-2.305c-1.016 0-2.811.608-2.811 2.496v34.529zM340.209 229.432c1.014 2.492-.688 2.492-1.705 2.492h-2.307c-1.889 0-1.889 3.271 0 3.271h22.229c1.887 0 1.887-3.271 0-3.271h-1.568c-1.016 0-2.26 0-3.367-2.492 0 0-17.381-39.79-17.754-40.665-.363-.872-.871-.731-1.244-.731h-2.443c-.875 0-1.15.731-1.33 1.012-.189.276-17.711 40.385-17.711 40.385-1.291 2.492-2.074 2.492-3.09 2.492h-2.305c-1.891 0-1.891 3.271 0 3.271h16.045c1.889 0 1.889-3.271 0-3.271h-4.145c-1.018 0-3.002.367-1.895-2.492l11.344-27.479 11.246 27.478z"/><path d="M336.109 219.387l-1.363-3.282h-11.617l-1.358 3.282zM288.639 194.902c-1.016-2.496.684-2.496 1.703-2.496h2.305c1.887 0 1.887-3.268 0-3.268h-22.225c-1.893 0-1.893 3.268 0 3.268h1.566c1.016 0 2.26 0 3.363 2.496 0 0 17.383 39.421 17.75 40.292.371.877.879.739 1.248.739h1.707c.547 0 .672.168 1.213-.73.176-.276 17.828-40.301 17.828-40.301 1.291-2.496 2.074-2.496 3.092-2.496h2.303c1.891 0 1.891-3.268 0-3.268h-13.828c-1.893 0-1.893 3.268 0 3.268h1.932c1.014 0 2.998-.363 1.891 2.496l-11.338 26.375-10.51-26.375zM263.672 229.432c1.014 2.492-.686 2.492-1.703 2.492h-2.313c-1.881 0-1.881 3.271 0 3.271h22.23c1.891 0 1.891-3.271 0-3.271h-1.568c-1.012 0-2.26 0-3.367-2.492 0 0-17.381-39.79-17.744-40.665-.373-.872-.881-.731-1.25-.731h-2.447c-.381 0-.713-.044-1.248.841-.174.289-17.792 40.556-17.792 40.556-1.292 2.492-2.075 2.492-3.083 2.492h-2.312c-1.892 0-1.892 3.271 0 3.271h16.045c1.892 0 1.892-3.271 0-3.271h-4.147c-1.015 0-2.994.367-1.892-2.492l11.347-27.479 11.244 27.478z"/><path d="M259.57 219.387l-1.357-3.282h-11.622l-1.359 3.282zM168.786 203.137l9.035 9.036-9.036 9.036-9.036-9.035zM12.576 223.35c0-1.477 3.227-1.94 3.227 0 0 3.595 1.683 11.201 11.181 11.201s10.396-6.774 10.396-9.083c0-10.326-23.88-7.839-23.88-23.704 0-11.241 10.028-15.068 17.728-15.068 6.729 0 9.748 1.61 10.579 2.255.832.648.921 1.196.921 1.849v8.578c0 1.191-1.845 2.116-2.576 0-.739-2.123-3.231-9.599-8.946-9.599-6.46 0-8.759 4.523-8.759 7.292 0 10.418 23.788 6.358 23.788 23.512 0 9.772-9.039 17.239-19.273 17.239-10.238 0-13.558-4.168-14.385-5.092v-9.38zM144.441 223.936c.74-1.476 2.487-1.2 2.487.731v6.091c0 .276 0 .829-.455 1.195-.465.368-6 5.168-15.034 5.168-13.369 0-28.586-7.839-28.586-24.717 0-14.844 15.633-24.158 28.91-24.158 3.872 0 10.927 1.563 12.219 2.114 1.291.556 1.472 1.107 1.567 1.805.092.688.643 5.119.827 6.222.188 1.108-1.563 2.498-2.768.369-1.195-2.12-4.055-7.375-11.89-7.375-7.839 0-16.509 5.995-16.509 21.209 0 15.217 9.405 21.392 16.229 21.392 4.522-.001 10.052-2.029 13.003-10.046M448.199 189.139l23.818 29.512v-23.748c0-1.888-1.801-2.496-2.816-2.496h-2.299c-1.896 0-1.896-3.268 0-3.268h14.289c1.893 0 1.893 3.268 0 3.268h-2.305c-1.016 0-2.811.608-2.811 2.496v40.892c0 .369-.139.828-.832.828h-3.596c-.275 0-.508-.091-.783-.363-.281-.28-30.572-38.173-30.572-38.173v31.346c0 1.896 1.801 2.492 2.811 2.492h2.309c1.893 0 1.893 3.271 0 3.271h-14.293c-1.893 0-1.893-3.271 0-3.271h2.305c1.014 0 2.811-.596 2.811-2.492v-33.79c0-2.168-1.703-3.235-3.184-3.235h-1.932c-1.893 0-1.893-3.268 0-3.268h17.08zM67.114 189.139l23.81 29.512v-23.748c0-1.888-1.791-2.496-2.812-2.496h-2.304c-1.891 0-1.891-3.268 0-3.268h14.29c1.896 0 1.896 3.268 0 3.268H97.8c-1.012 0-2.815.608-2.815 2.496v40.892c0 .369-.142.828-.829.828h-3.6c-.275 0-.503-.091-.783-.363-.272-.28-30.566-38.173-30.566-38.173v31.346c0 1.896 1.795 2.492 2.811 2.492h2.308c1.888 0 1.888 3.271 0 3.271h-14.3c-1.892 0-1.892-3.271 0-3.271h2.313c1.012 0 2.812-.596 2.812-2.492v-33.79c0-2.168-1.708-3.235-3.18-3.235h-1.944c-1.892 0-1.892-3.268 0-3.268h17.087zM214.145 232.899c1.817 0 7.549-.03 11.412-8.027.661-1.804 3.451-1.4 3.135.457l-1.457 8.622c-.131.67-.587 1.243-1.384 1.243h-34.578c-1.892 0-1.892-3.271 0-3.271h2.309c1.01 0 2.812-.596 2.812-2.492v-34.529c0-1.888-1.802-2.496-2.812-2.496h-2.309c-1.892 0-1.892-3.268 0-3.268h22.221c1.89 0 1.89 3.268 0 3.268h-2.304c-1.013 0-2.816.608-2.816 2.496v32.689c-.001 4.25 2.47 5.308 5.771 5.308M385.813 232.899c1.818 0 7.553-.03 11.42-8.027.656-1.804 3.447-1.4 3.127.457l-1.453 8.622c-.133.67-.586 1.243-1.387 1.243h-34.574c-1.893 0-1.893-3.271 0-3.271h2.301c1.018 0 2.816-.596 2.816-2.492v-34.529c0-1.888-1.799-2.496-2.816-2.496h-2.301c-1.893 0-1.893-3.268 0-3.268h22.219c1.887 0 1.887 3.268 0 3.268h-2.303c-1.018 0-2.811.608-2.811 2.496v32.689c0 4.25 2.469 5.308 5.762 5.308"/><path fill="#00537B" d="M103.878 82.931l32.449 32.449 32.454-32.449-32.454-32.446z"/><path fill="#00537B" d="M143.018 131.925a60.978 60.978 0 0 0 16.87 8.574c21.37-12.35 42.478-38.409 42.478-57.332 0-19.189-21.765-45.767-43.442-57.893-5.973 2.05-11.552 4.979-16.518 8.676 15.389 6.174 45.631 37.569 45.631 49.099-.001 11.39-29.459 42.172-45.019 48.876"/><path fill="#00537B" d="M183.442 22.179c31.323 2.417 55.887 28.578 55.887 60.524 0 31.312-23.743 57.104-54.184 60.38 18.446-15.271 31.547-37.81 31.547-59.806 0-22.605-13.985-45.824-33.25-61.098"/></svg>