<svg xmlns="http://www.w3.org/2000/svg" width="400" height="150" overflow="visible"><path fill="none" d="M12.576 22.179h470.848v215.643H12.576z"/><path fill="none" d="M12.576 22.179h470.035v215.643H12.576z"/><path fill="none" d="M12.576 22.179h470.035v215.643H12.576z"/><path fill="#00537B" d="M103.878 82.931l32.449 32.449 32.454-32.449-32.454-32.446z"/><path fill="#00537B" d="M143.018 131.925a60.978 60.978 0 0 0 16.87 8.574c21.37-12.35 42.478-38.409 42.478-57.332 0-19.189-21.765-45.767-43.442-57.893-5.973 2.05-11.552 4.979-16.518 8.676 15.389 6.174 45.631 37.569 45.631 49.099-.001 11.39-29.459 42.172-45.019 48.876"/><path fill="#00537B" d="M183.442 22.179c31.323 2.417 55.887 28.578 55.887 60.524 0 31.312-23.743 57.104-54.184 60.38 18.446-15.271 31.547-37.81 31.547-59.806 0-22.605-13.985-45.824-33.25-61.098"/></svg>
